+---------------------------------+
|Robin Hood 2010 TS.XVID.FEEL-FREE|
+---------------------------------+

GENRE:Action | Drama
Source Audio:BUT.Thank You!
Source video:TS ELEKTI4KA.Thank You!
Audio Language.: English
Encoder: Tony2
iMDB URL:http://www.imdb.com/title/tt0955308/
...................................................

+-------+
|General|
+-------+

Complete name : Robin Hood 2010 TS.XVID.FEEL-FREE
Format : AVI
Format/Info : Audio Video Interleave
File size : 1.50 GiB
Duration : 2h 11mn
Overall bit rate : 1 637 Kbps
................................................

+-----+
|Video|
+-----+

ID : 0
Format : MPEG-4 Visual
Format profile : Simple@L3
Format settings, BVOP : Yes
Format settings, QPel : No
Format settings, GMC : No warppoints
Format settings, Matrix : Default (H.263)
Codec ID : XVID
Codec ID/Hint : XviD
Duration : 2h 11mn
Bit rate : 1 500 Kbps
Width : 720 pixels
Height : 336 pixels
Display aspect ratio : 2.2:1
Frame rate : 23.976 fps
Resolution : 24 bits
Scan type : Progressive
Bits/(Pixel*Frame) : 0.259
Stream size : 1.38 GiB (92%)
.................................................

+-----+
|Audio|
+-----+

ID : 1
Format : MPEG Audio
Format version : Version 1
Format profile : Layer 3
Codec ID : 55
Codec ID/Hint : MP3
Duration : 2h 11mn
Bit rate mode : Constant
Bit rate : 128 Kbps
Channel(s) : 2 channels
Sampling rate : 48.0 KHz
Resolution : 16 bits
Stream size : 120 MiB (8%)
Alignment : Aligned on interleaves
Interleave, duration : 42 ms (1.00 video frame)
Interleave, preload duration : 504 ms
...................................................

Plot:
The story of an archer in the army of Richard Coeur de Lion who fights against the Norman invaders and becomes the legendary hero known as Robin Hood.
...................................................